HIERARCHY
ROOT Root
{
  OFFSET 0.0 0.0 0.0
  CHANNELS 6 Xposition Yposition Zposition Zrotation Yrotation Xrotation
  JOINT Hips
  {
    OFFSET 0.0 100.0 0.0
    CHANNELS 6 Xposition Yposition Zposition Zrotation Yrotation Xrotation
    JOINT Spine1
    {
      OFFSET -0.013727 5.003763 -0.053727
      CHANNELS 3 Zrotation Yrotation Xrotation
      JOINT Spine2
      {
        OFFSET -0.0 7.125301 -0.029825
        CHANNELS 3 Zrotation Yrotation Xrotation
        JOINT Chest
        {
          OFFSET -1e-06 7.550063 -0.815971
          CHANNELS 3 Zrotation Yrotation Xrotation
          JOINT Neck1
          {
            OFFSET -0.181677 26.311295 -0.553348
            CHANNELS 3 Zrotation Yrotation Xrotation
            JOINT Neck2
            {
              OFFSET -3e-06 7.709397 2.302585
              CHANNELS 3 Zrotation Yrotation Xrotation
              JOINT Head
              {
                OFFSET -5e-06 6.128916 1.953709
                CHANNELS 3 Zrotation Yrotation Xrotation
                JOINT HeadEnd
                {
                  OFFSET 0.003598 16.065403 -1.835379
                  CHANNELS 3 Zrotation Yrotation Xrotation
                }
                JOINT Jaw
                {
                  OFFSET 0.002637 0.475592 3.094941
                  CHANNELS 3 Zrotation Yrotation Xrotation
                }
                JOINT LeftEye
                {
                  OFFSET 3.206381 5.380205 7.586883
                  CHANNELS 3 Zrotation Yrotation Xrotation
                }
                JOINT RightEye
                {
                  OFFSET -3.22244 5.361869 7.558234
                  CHANNELS 3 Zrotation Yrotation Xrotation
                }
              }
            }
          }
          JOINT LeftShoulder
          {
            OFFSET 1.621652 23.237164 5.113413
            CHANNELS 3 Zrotation Yrotation Xrotation
            JOINT LeftArm
            {
              OFFSET 14.919846 2e-06 -5.502326
              CHANNELS 3 Zrotation Yrotation Xrotation
              JOINT LeftForeArm
              {
                OFFSET 28.739307 0.0 -0.002588
                CHANNELS 3 Zrotation Yrotation Xrotation
                JOINT LeftHand
                {
                  OFFSET 27.093981 -1e-06 0.002609
                  CHANNELS 3 Zrotation Yrotation Xrotation
                  JOINT LeftHandThumb1
                  {
                    OFFSET 2.276482 -1.392045 3.191413
                    CHANNELS 3 Zrotation Yrotation Xrotation
                    JOINT LeftHandThumb2
                    {
                      OFFSET 4.012836 -1.828127 1.641654
                      CHANNELS 3 Zrotation Yrotation Xrotation
                      JOINT LeftHandThumb3
                      {
                        OFFSET 2.798515 0.0 -3e-06
                        CHANNELS 3 Zrotation Yrotation Xrotation
                        JOINT LeftHandThumbEnd
                        {
                          OFFSET 3.180793 -4e-06 4e-06
                          CHANNELS 3 Zrotation Yrotation Xrotation
                        }
                      }
                    }
                  }
                  JOINT LeftHandIndex1
                  {
                    OFFSET 3.247555 -0.531998 2.296169
                    CHANNELS 3 Zrotation Yrotation Xrotation
                    JOINT LeftHandIndex2
                    {
                      OFFSET 6.364578 0.01206 0.1786
                      CHANNELS 3 Zrotation Yrotation Xrotation
                      JOINT LeftHandIndex3
                      {
                        OFFSET 3.662364 0.0 0.0
                        CHANNELS 3 Zrotation Yrotation Xrotation
                        JOINT LeftHandIndex4
                        {
                          OFFSET 2.329242 4e-06 4e-06
                          CHANNELS 3 Zrotation Yrotation Xrotation
                          JOINT LeftHandIndexEnd
                          {
                            OFFSET 2.759615 -0.180537 -0.113024
                            CHANNELS 3 Zrotation Yrotation Xrotation
                          }
                        }
                      }
                    }
                  }
                  JOINT LeftHandMiddle1
                  {
                    OFFSET 3.163495 0.240981 1.000332
                    CHANNELS 3 Zrotation Yrotation Xrotation
                    JOINT LeftHandMiddle2
                    {
                      OFFSET 6.19078 -0.259278 -1.002548
                      CHANNELS 3 Zrotation Yrotation Xrotation
                      JOINT LeftHandMiddle3
                      {
                        OFFSET 4.35652 -4e-06 -1e-06
                        CHANNELS 3 Zrotation Yrotation Xrotation
                        JOINT LeftHandMiddle4
                        {
                          OFFSET 2.996877 -8e-06 0.0
                          CHANNELS 3 Zrotation Yrotation Xrotation
                          JOINT LeftHandMiddleEnd
                          {
                            OFFSET 2.304287 -0.294569 -0.031741
                            CHANNELS 3 Zrotation Yrotation Xrotation
                          }
                        }
                      }
                    }
                  }
                  JOINT LeftHandRing1
                  {
                    OFFSET 2.882643 -0.053652 -0.322543
                    CHANNELS 3 Zrotation Yrotation Xrotation
                    JOINT LeftHandRing2
                    {
                      OFFSET 5.854541 -0.486202 -1.373841
                      CHANNELS 3 Zrotation Yrotation Xrotation
                      JOINT LeftHandRing3
                      {
                        OFFSET 4.350578 0.0 3e-06
                        CHANNELS 3 Zrotation Yrotation Xrotation
                        JOINT LeftHandRing4
                        {
                          OFFSET 2.651321 7e-06 2e-06
                          CHANNELS 3 Zrotation Yrotation Xrotation
                          JOINT LeftHandRingEnd
                          {
                            OFFSET 1.936105 0.077687 -7.1e-05
                            CHANNELS 3 Zrotation Yrotation Xrotation
                          }
                        }
                      }
                    }
                  }
                  JOINT LeftHandPinky1
                  {
                    OFFSET 2.8655 -0.310005 -1.600378
                    CHANNELS 3 Zrotation Yrotation Xrotation
                    JOINT LeftHandPinky2
                    {
                      OFFSET 5.087849 -1.331141 -1.77123
                      CHANNELS 3 Zrotation Yrotation Xrotation
                      JOINT LeftHandPinky3
                      {
                        OFFSET 3.070974 4e-06 0.0
                        CHANNELS 3 Zrotation Yrotation Xrotation
                        JOINT LeftHandPinky4
                        {
                          OFFSET 1.549672 0.0 1e-06
                          CHANNELS 3 Zrotation Yrotation Xrotation
                          JOINT LeftHandPinkyEnd
                          {
                            OFFSET 1.944893 -0.157802 0.057219
                            CHANNELS 3 Zrotation Yrotation Xrotation
                          }
                        }
                      }
                    }
                  }
                }
              }
            }
          }
          JOINT RightShoulder
          {
            OFFSET -1.380118 23.180309 5.214158
            CHANNELS 3 Zrotation Yrotation Xrotation
            JOINT RightArm
            {
              OFFSET -15.037196 1.2e-05 -5.545604
              CHANNELS 3 Zrotation Yrotation Xrotation
              JOINT RightForeArm
              {
                OFFSET -28.736639 2e-06 -0.002597
                CHANNELS 3 Zrotation Yrotation Xrotation
                JOINT RightHand
                {
                  OFFSET -27.133619 -0.0 0.002613
                  CHANNELS 3 Zrotation Yrotation Xrotation
                  JOINT RightHandThumb1
                  {
                    OFFSET -2.274032 -1.383988 3.163127
                    CHANNELS 3 Zrotation Yrotation Xrotation
                    JOINT RightHandThumb2
                    {
                      OFFSET -4.011429 -1.827466 1.640914
                      CHANNELS 3 Zrotation Yrotation Xrotation
                      JOINT RightHandThumb3
                      {
                        OFFSET -2.794935 -4e-06 -3e-06
                        CHANNELS 3 Zrotation Yrotation Xrotation
                        JOINT RightHandThumbEnd
                        {
                          OFFSET -3.183852 4e-06 1e-06
                          CHANNELS 3 Zrotation Yrotation Xrotation
                        }
                      }
                    }
                  }
                  JOINT RightHandIndex1
                  {
                    OFFSET -3.253266 -0.520057 2.282866
                    CHANNELS 3 Zrotation Yrotation Xrotation
                    JOINT RightHandIndex2
                    {
                      OFFSET -6.341917 0.012471 0.178266
                      CHANNELS 3 Zrotation Yrotation Xrotation
                      JOINT RightHandIndex3
                      {
                        OFFSET -3.654871 -8e-06 -0.0
                        CHANNELS 3 Zrotation Yrotation Xrotation
                        JOINT RightHandIndex4
                        {
                          OFFSET -2.327586 0.0 1e-06
                          CHANNELS 3 Zrotation Yrotation Xrotation
                          JOINT RightHandIndexEnd
                          {
                            OFFSET -2.76179 -0.180656 -0.113078
                            CHANNELS 3 Zrotation Yrotation Xrotation
                          }
                        }
                      }
                    }
                  }
                  JOINT RightHandMiddle1
                  {
                    OFFSET -3.168106 0.246593 1.00103
                    CHANNELS 3 Zrotation Yrotation Xrotation
                    JOINT RightHandMiddle2
                    {
                      OFFSET -6.180828 -0.258836 -1.000895
                      CHANNELS 3 Zrotation Yrotation Xrotation
                      JOINT RightHandMiddle3
                      {
                        OFFSET -4.348901 0.0 -0.0
                        CHANNELS 3 Zrotation Yrotation Xrotation
                        JOINT RightHandMiddle4
                        {
                          OFFSET -3.00024 -4e-06 -2e-06
                          CHANNELS 3 Zrotation Yrotation Xrotation
                          JOINT RightHandMiddleEnd
                          {
                            OFFSET -2.30252 -0.29437 -0.031706
                            CHANNELS 3 Zrotation Yrotation Xrotation
                          }
                        }
                      }
                    }
                  }
                  JOINT RightHandRing1
                  {
                    OFFSET -2.88569 -0.067952 -0.308858
                    CHANNELS 3 Zrotation Yrotation Xrotation
                    JOINT RightHandRing2
                    {
                      OFFSET -5.854198 -0.48613 -1.373731
                      CHANNELS 3 Zrotation Yrotation Xrotation
                      JOINT RightHandRing3
                      {
                        OFFSET -4.33881 -4e-06 -0.0
                        CHANNELS 3 Zrotation Yrotation Xrotation
                        JOINT RightHandRing4
                        {
                          OFFSET -2.654903 -4e-06 4e-06
                          CHANNELS 3 Zrotation Yrotation Xrotation
                          JOINT RightHandRingEnd
                          {
                            OFFSET -1.933568 0.077527 -5.2e-05
                            CHANNELS 3 Zrotation Yrotation Xrotation
                          }
                        }
                      }
                    }
                  }
                  JOINT RightHandPinky1
                  {
                    OFFSET -2.866425 -0.342796 -1.584145
                    CHANNELS 3 Zrotation Yrotation Xrotation
                    JOINT RightHandPinky2
                    {
                      OFFSET -5.091371 -1.332055 -1.772385
                      CHANNELS 3 Zrotation Yrotation Xrotation
                      JOINT RightHandPinky3
                      {
                        OFFSET -3.062664 -4e-06 1e-06
                        CHANNELS 3 Zrotation Yrotation Xrotation
                        JOINT RightHandPinky4
                        {
                          OFFSET -1.546529 4e-06 -2e-06
                          CHANNELS 3 Zrotation Yrotation Xrotation
                          JOINT RightHandPinkyEnd
                          {
                            OFFSET -1.945119 -0.157718 0.057211
                            CHANNELS 3 Zrotation Yrotation Xrotation
                          }
                        }
                      }
                    }
                  }
                }
              }
            }
          }
        }
      }
    }
    JOINT LeftLeg
    {
      OFFSET 10.043214 -8.434526 2.595655
      CHANNELS 3 Zrotation Yrotation Xrotation
      JOINT LeftShin
      {
        OFFSET -1e-06 -43.221752 -0.802913
        CHANNELS 3 Zrotation Yrotation Xrotation
        JOINT LeftFoot
        {
          OFFSET 1e-06 -42.155094 -3.481523
          CHANNELS 3 Zrotation Yrotation Xrotation
          JOINT LeftToeBase
          {
            OFFSET 0.0 -5.059472 13.231529
            CHANNELS 3 Zrotation Yrotation Xrotation
            JOINT LeftToeEnd
            {
              OFFSET -0.009607 -1.647619 6.513017
              CHANNELS 3 Zrotation Yrotation Xrotation
            }
          }
        }
      }
    }
    JOINT RightLeg
    {
      OFFSET -10.047278 -8.29526 2.620317
      CHANNELS 3 Zrotation Yrotation Xrotation
      JOINT RightShin
      {
        OFFSET 1e-06 -43.362206 -0.805556
        CHANNELS 3 Zrotation Yrotation Xrotation
        JOINT RightFoot
        {
          OFFSET 2e-06 -42.117393 -3.478398
          CHANNELS 3 Zrotation Yrotation Xrotation
          JOINT RightToeBase
          {
            OFFSET -0.0 -5.079609 13.284196
            CHANNELS 3 Zrotation Yrotation Xrotation
            JOINT RightToeEnd
            {
              OFFSET 0.009532 -1.634378 6.460591
              CHANNELS 3 Zrotation Yrotation Xrotation
            }
          }
        }
      }
    }
  }
}
MOTION
Frames: 4
Frame Time: 0.03333333333333333
-0.479699 0.0 -0.391185 0.0 0.070323 0.0 0.0 100.286552 0.0 -0.26128 -0.017422 -3.849367 0.023607 0.032342 -2.45835 -0.426506 -0.051989 -5.772685 0.00323 -1.906896 12.56073 0.2158 2.530179 13.480932 -0.274272 0.66604 -3.738897 1.2368 0.332155 -12.470222 3e-05 -0.00039 -0.001277 -0.002406 0.065249 0.054747 0.641003 -3.67476 -10.511359 -0.650404 3.812373 -10.520823 -25.366995 -3.454331 14.815495 -46.403202 -7.421363 19.726564 0.149025 -26.393145 0.025882 -3.829907 -1.68723 -4.946435 -5.8651 9.831096 0.850192 -10.937769 -0.356819 7.210832 -0.000765 8.774325 0.008169 -16.198372 18.175175 6.051501 -1.837593 2.496143 -2.497582 -10.169555 4.688466 4.626987 -20.982706 0.002227 -0.00431 -21.212772 2.449244 -3.590941 -0.001125 -0.001516 0.00131 -1.368151 2.229807 -0.73801 -21.330452 0.608423 3.003979 -13.837667 0.005642 0.00505 -23.884901 -0.238931 -0.852734 -60.02475 2.722371 -1.252601 -0.299581 1.671058 0.848714 -14.212096 0.107777 1.295848 -34.221371 -0.26965 0.955302 -20.034805 0.984989 1.204762 0.000338 -0.004449 0.000564 -3.446338 0.7882 0.51298 -15.925861 -3.148656 3.006372 -6.334418 0.003727 -0.009368 -18.104969 3.650358 -4.887708 0.00125 -0.00468 -0.011775 26.436478 8.621107 16.095718 48.20435 6.055287 20.862759 0.648374 25.351242 0.244088 1.005481 4.297753 -4.125904 2.242833 -5.211636 -3.06795 14.259044 -0.837693 6.990503 -0.002687 -12.697526 0.002927 16.26388 -17.913164 2.484328 1.666869 -1.953954 -2.900795 4.736241 -4.177123 5.005291 11.040111 0.004914 -0.002532 12.139901 -3.745643 -2.867769 -0.0 -0.0 0.0 1.295033 -1.937799 -1.511164 14.815256 0.569679 3.869963 14.259667 -1.336068 -6.677299 19.66901 0.139491 -0.644642 50.047359 -0.807548 -6.537268 0.354384 -1.518627 -0.025692 20.234867 3.695074 2.307759 18.793606 0.005703 0.005551 10.750294 -0.47312 1.385677 0.00921 0.002628 -0.001604 3.287828 0.299634 -0.604259 21.504879 11.847437 2.278234 8.170739 0.011311 -0.017386 18.409824 -3.807649 -4.921968 -0.010369 0.004547 -0.022701 2.913767 3.179704 4.018973 -0.046353 -0.121232 3.507347 -2.637088 0.738663 -3.731457 1.653554 -2.051986 -0.496805 -0.000797 -0.000101 0.000268 -1.818156 -1.384209 4.294254 0.007943 0.073237 2.608303 4.470451 1.110262 -3.132621 -1.436365 0.944388 0.00672 0.000214 0.000282 0.002273 
-0.539829 0.0 -0.404006 0.0 0.087492 0.0 0.0 100.303017 0.0 -0.263841 -0.017586 -3.85593 0.014442 0.038804 -2.505771 -0.421819 -0.061436 -5.774496 0.004997 -1.893588 12.619617 0.216384 2.473539 13.493489 -0.294861 0.699367 -3.762444 1.19527 0.321242 -12.365613 0.000163 5.6e-05 0.003443 0.003342 0.089127 0.059552 0.642724 -3.647316 -10.506172 -0.640866 3.834199 -10.523326 -25.489799 -3.3588 14.800356 -46.29388 -7.306872 19.480036 0.072898 -26.432146 0.038202 -3.850903 -1.782004 -4.602879 -5.857738 9.865534 0.740286 -10.946389 -0.362903 7.174973 -0.003806 8.777143 0.01366 -16.180395 18.160912 6.014883 -1.847518 2.492787 -2.500784 -10.157527 4.683666 4.623232 -20.947723 0.004739 -0.011489 -21.2015 2.455061 -3.607188 0.004234 0.00576 -0.006628 -1.365485 2.235314 -0.757608 -21.332548 0.59018 3.006147 -13.83319 0.00067 0.007724 -23.878349 -0.229745 -0.864154 -60.160313 2.681561 -1.271026 -0.296686 1.671568 0.826374 -14.209652 0.105754 1.307614 -34.199802 -0.276999 0.951308 -20.046034 0.953794 1.198671 0.002043 0.006607 0.007794 -3.440557 0.775644 0.495914 -15.917153 -3.158133 3.007462 -6.339519 -0.001864 -0.012341 -18.132446 3.666046 -4.915315 -0.008135 -0.00871 -0.000353 26.563278 8.524488 16.031746 48.061016 6.035721 20.84552 0.600056 25.333858 0.229111 0.994574 4.316737 -4.196319 2.231511 -5.294108 -3.241083 14.289876 -0.813994 6.929341 -0.012728 -12.673856 0.012744 16.189634 -17.823174 2.441186 1.663468 -1.955728 -2.885038 4.713289 -4.161443 5.006412 11.00111 0.000728 -0.000429 12.06656 -3.72473 -2.855384 0.002315 -0.002025 0.000195 1.281067 -1.910895 -1.501376 14.780803 0.554825 3.874842 14.212555 -1.338269 -6.670808 19.591431 0.14968 -0.65064 49.782906 -0.799486 -6.564577 0.337223 -1.494381 -0.044811 20.2022 3.672515 2.331987 18.745497 0.004777 -0.006376 10.741624 -0.483791 1.386778 -0.003093 -0.00363 0.004102 3.229859 0.348627 -0.593482 21.480497 11.76813 2.261534 8.153709 -0.004556 -0.002274 18.339909 -3.807864 -4.923007 0.003081 0.008902 -0.001337 2.929438 3.093563 4.163228 -0.053017 -0.12488 3.254923 -2.620685 0.779636 -3.685722 1.655011 -2.044946 -0.620091 0.000626 0.000236 0.009633 -1.799725 -1.349015 4.40976 0.000451 0.046562 2.419111 4.458834 1.060338 -2.973154 -1.435153 0.950248 -0.048023 2.1e-05 -3.2e-05 0.002342 
-0.532685 0.0 -0.383193 0.0 0.123155 0.0 0.0 100.307228 0.0 -0.267638 -0.017849 -3.875385 0.017122 0.048102 -2.542571 -0.424881 -0.050645 -5.813985 -0.000944 -1.89826 12.723942 0.239285 2.456089 13.582833 -0.310108 0.686326 -3.767936 1.172687 0.373294 -12.390167 -0.000148 0.000391 -0.002133 0.004961 0.08815 0.066439 0.639583 -3.648102 -10.515176 -0.635076 3.831401 -10.526872 -25.676167 -3.2417 14.77998 -46.159546 -7.230132 19.322453 0.046289 -26.431881 0.020348 -3.934882 -1.857667 -4.3424 -5.873442 9.841389 0.682386 -10.959241 -0.398952 7.114593 -0.003171 8.772952 -0.004063 -16.206919 18.184515 6.026 -1.845689 2.497881 -2.499409 -10.149668 4.679069 4.610435 -20.9506 0.008372 -0.006119 -21.20624 2.456682 -3.601898 -0.015721 -0.005569 0.00364 -1.365542 2.245226 -0.743946 -21.321703 0.588468 3.015779 -13.79685 0.004674 -0.0076 -23.884089 -0.22806 -0.834264 -60.129005 2.67158 -1.252609 -0.296617 1.67937 0.827866 -14.209137 0.106188 1.318843 -34.21936 -0.288634 0.957578 -20.049458 0.955744 1.199111 0.012479 -0.009705 0.002891 -3.446277 0.800451 0.514314 -15.909843 -3.160956 2.985888 -6.335298 0.006107 0.007175 -18.110647 3.65565 -4.907304 0.008427 0.003834 6.4e-05 26.640827 8.471352 16.072504 48.083164 6.000622 20.843481 0.547071 25.320066 0.200528 1.013449 4.332826 -4.144918 2.235514 -5.269043 -3.188811 14.263352 -0.822247 6.970018 -0.007129 -12.678478 0.019602 16.24684 -17.819439 2.446203 1.662025 -1.951552 -2.896256 4.730383 -4.166595 5.001092 11.033151 0.002713 0.007796 12.131981 -3.707027 -2.884851 -0.000254 0.002849 -0.010075 1.280404 -1.915483 -1.506064 14.814373 0.570972 3.857542 14.255366 -1.331478 -6.655781 19.636921 0.170904 -0.648104 50.007507 -0.77088 -6.547551 0.345878 -1.50047 -0.032573 20.244991 3.707028 2.280837 18.795904 0.008096 0.013665 10.745649 -0.48136 1.402794 -1e-06 0.0 0.0 3.259378 0.333563 -0.595931 21.511135 11.812232 2.262811 8.165949 0.014024 -0.00237 18.39949 -3.766696 -4.942842 -0.008354 0.005677 -0.002918 2.941596 3.022483 4.232769 -0.055934 -0.121315 3.183996 -2.63445 0.780614 -3.691386 1.652908 -2.035172 -0.619808 5.9e-05 -0.00039 0.002445 -1.766637 -1.275331 4.504476 -0.012395 0.021199 2.312591 4.405673 0.982836 -2.9601 -1.432138 0.949524 -0.043728 3.6e-05 1.6e-05 0.002499 
-0.534188 0.0 -0.378483 0.0 0.163007 0.0 0.0 100.28994 0.0 -0.266434 -0.017802 -3.903336 0.024434 0.055911 -2.568685 -0.435163 -0.042204 -5.844938 -0.001271 -1.90562 12.83468 0.286675 2.474683 13.734971 -0.340505 0.638159 -3.77574 1.144353 0.41829 -12.499433 0.000289 0.000377 0.00132 0.005996 0.08284 0.0789 0.632784 -3.65531 -10.517792 -0.627652 3.826026 -10.540818 -25.76437 -3.212038 14.793671 -46.13345 -7.161709 19.265162 0.023276 -26.466923 0.016015 -3.986936 -1.858536 -4.216013 -5.898635 9.812021 0.792986 -10.925058 -0.348762 7.200043 0.000143 8.777481 -0.009702 -16.207495 18.185472 6.094041 -1.841834 2.48204 -2.520351 -10.182961 4.689435 4.624191 -21.000357 0.000247 -0.005217 -21.261763 2.458578 -3.599094 -0.016488 -0.000976 0.001808 -1.358456 2.23583 -0.750239 -21.354464 0.583684 3.017181 -13.826104 0.003928 0.000401 -23.931232 -0.251746 -0.857952 -60.291363 2.600932 -1.167407 -0.292284 1.670552 0.838436 -14.224598 0.097764 1.295025 -34.26807 -0.282469 0.965166 -20.078003 0.963758 1.203364 0.007034 -0.002845 0.016811 -3.449163 0.780614 0.476088 -15.940692 -3.166239 3.013983 -6.343597 0.00112 -0.00373 -18.117809 3.661189 -4.918806 -0.007656 0.000678 0.008159 26.637281 8.452626 16.262205 48.111767 6.075675 20.88591 0.515101 25.280205 0.14383 1.024206 4.416506 -3.983434 2.262655 -5.240773 -3.113785 14.271236 -0.84939 6.942355 -0.008908 -12.705364 0.028042 16.266174 -17.85251 2.486916 1.67031 -1.952957 -2.869392 4.72719 -4.172249 5.000175 11.028047 0.004818 -0.012508 12.120461 -3.737985 -2.865649 -0.001881 -0.004456 0.012797 1.294506 -1.934865 -1.468571 14.799585 0.587296 3.857375 14.249659 -1.342517 -6.659649 19.628965 0.150053 -0.637953 49.941917 -0.783478 -6.492432 0.351649 -1.507449 -0.003854 20.235495 3.7002 2.298204 18.790552 -0.000918 -0.004945 10.759643 -0.485858 1.428482 0.012983 0.016663 -0.013269 3.277661 0.302744 -0.565211 21.508705 11.851828 2.259866 8.153703 -0.008461 0.001872 18.395416 -3.788058 -4.91674 0.005385 0.006772 -0.000389 2.955489 3.009465 4.155336 -0.057264 -0.126794 3.431206 -2.673476 0.78098 -3.86922 1.649813 -2.034174 -0.557906 -0.000279 0.000365 -0.00455 -1.744308 -1.223387 4.480775 -0.016651 0.003109 2.469716 4.371292 0.92892 -3.073839 -1.427581 0.953906 -0.009938 0.000401 0.000103 -0.001368 
